<?xml version="1.0" standalone="no"?>
<!DOCTYPE svg PUBLIC "-//W3C//DTD SVG 20010904//EN"
 "http://www.w3.org/TR/2001/REC-SVG-20010904/DTD/svg10.dtd">
<svg version="1.0" xmlns="http://www.w3.org/2000/svg"
 width="400.000000pt" height="400.000000pt" viewBox="0 0 400.000000 400.000000"
 preserveAspectRatio="xMidYMid meet">
<metadata>
Created by potrace 1.11, written by Peter Selinger 2001-2013
</metadata>
<g transform="translate(0.000000,400.000000) scale(0.100000,-0.100000)"
fill="#000000" stroke="none">
<path d="M0 2000 l0 -2000 2000 0 2000 0 0 2000 0 2000 -2000 0 -2000 0 0
-2000z m1564 970 c102 -26 239 -98 359 -188 188 -142 244 -246 342 -634 48
-190 86 -282 149 -354 l33 -38 89 14 c100 15 131 28 261 112 91 59 106 74 264
263 19 24 47 67 62 96 31 64 73 267 82 394 9 134 43 199 131 251 114 67 263
23 329 -98 29 -51 30 -57 27 -171 -2 -126 -54 -421 -91 -518 -30 -78 -111
-208 -176 -283 -33 -38 -86 -101 -118 -140 -72 -88 -86 -100 -223 -191 -215
-143 -263 -163 -518 -211 -286 -53 -512 96 -681 452 -32 66 -58 147 -90 276
-67 271 -86 319 -149 373 -53 47 -191 125 -221 125 -9 0 -30 -9 -46 -20 -27
-20 -200 -210 -268 -296 -53 -67 -137 -210 -197 -334 -104 -215 -189 -316
-291 -346 -148 -43 -303 76 -303 233 0 63 17 107 65 173 20 27 58 97 86 157
83 179 223 389 372 558 172 196 241 257 349 309 51 25 104 47 118 49 67 11
182 6 254 -13z"/>
</g>
</svg>
